<svg width="70" height="70" viewBox="0 0 70 70" fill="none" xmlns="http://www.w3.org/2000/svg">
<rect width="70" height="70" rx="24" fill="#FDEEFD"/>
<path d="M28.332 36.3332C30.5454 36.3332 32.332 34.5465 32.332 32.3332C32.332 30.1198 30.5454 28.3332 28.332 28.3332C26.1187 28.3332 24.332 30.1198 24.332 32.3332C24.332 34.5465 26.1187 36.3332 28.332 36.3332ZM44.332 28.3332H36.332C34.8654 28.3332 33.6654 29.5332 33.6654 30.9998V37.6665H22.9987V26.9998C22.9987 26.2665 22.3987 25.6665 21.6654 25.6665C20.932 25.6665 20.332 26.2665 20.332 26.9998V44.3332C20.332 45.0665 20.932 45.6665 21.6654 45.6665C22.3987 45.6665 22.9987 45.0665 22.9987 44.3332V41.6665H46.9987V44.3332C46.9987 45.0665 47.5987 45.6665 48.332 45.6665C49.0654 45.6665 49.6654 45.0665 49.6654 44.3332V33.6665C49.6654 30.7198 47.2787 28.3332 44.332 28.3332Z" fill="#9E4AF2"/>
</svg>
