<svg width="222" height="298" viewBox="0 0 222 298" fill="none" xmlns="http://www.w3.org/2000/svg">
<path d="M148 297.143C107.131 297.143 74 263.726 74 222.857V222.857H148V297.143V297.143Z" fill="#F2994A"/>
<path d="M148 222.857C188.869 222.857 222 189.441 222 148.572V148.572H148V222.857V222.857Z" fill="#EB5757"/>
<path d="M74 74.2861C33.1309 74.2861 0 40.8695 0 0.000458717V0.000458717H74V74.2861V74.2861Z" fill="#F2994A"/>
<path d="M74 74.2861C33.1309 74.2861 0 107.703 0 148.572V148.572H74V74.2861V74.2861Z" fill="#EB5757"/>
<path d="M222 148.571C181.131 148.571 148 115.155 148 74.2856V74.2856H222V148.571V148.571Z" fill="#F2C94C"/>
<path d="M148 0C188.869 0 222 33.4166 222 74.2857V74.2857H148V0V0Z" fill="#EB5757"/>
<path d="M74 222.857C33.1309 222.857 0 189.441 0 148.572V148.572H74V222.857V222.857Z" fill="#F2C94C"/>
<path d="M74 148.571C114.869 148.571 148 115.155 148 74.2856V74.2856H74V148.571V148.571Z" fill="#F2994A"/>
<path d="M74 0C114.869 0 148 33.4166 148 74.2857V74.2857H74V0V0Z" fill="#F2C94C"/>
<path d="M74 148.571C114.869 148.571 148 181.988 148 222.857V222.857H74V148.571V148.571Z" fill="#EB5757"/>
<path d="M148 297.143V222.857H222V297.143H148Z" fill="#F2C94C"/>
</svg>
