<svg width="380" height="169" viewBox="0 0 380 169" fill="none" xmlns="http://www.w3.org/2000/svg">
<g filter="url(#filter0_d_3229_1130)">
<rect x="49" y="20" width="282" height="71" rx="35.5" fill="white"/>
</g>
<rect x="58.6289" y="29.627" width="51.7802" height="51.7802" rx="25.8901" fill="#0277FA"/>
<g clip-path="url(#clip0_3229_1130)">
<path d="M80.6909 56.7937H80.0526C78.6426 56.7937 77.4997 57.9385 77.4997 59.3514V61.8947C77.4997 63.3072 78.6426 64.4524 80.0526 64.4524H80.6909C81.3957 64.4524 81.9673 63.8796 81.9673 63.1735V58.0725C81.9673 57.3661 81.3957 56.7937 80.6909 56.7937ZM88.9878 56.7937H88.3496C87.6447 56.7937 87.0731 57.3661 87.0731 58.0725V63.1735C87.0731 63.8796 87.6447 64.4524 88.3496 64.4524H88.9878C90.3979 64.4524 91.5407 63.3072 91.5407 61.8947V59.3514C91.5407 57.9389 90.3979 56.7937 88.9878 56.7937ZM84.5202 46.582C78.8125 46.582 74.4909 51.334 74.3086 56.7937V61.2612C74.3086 61.6139 74.5942 61.8995 74.9468 61.8995H75.585C75.9377 61.8995 76.2233 61.6139 76.2233 61.2612V56.7937C76.2233 52.2196 79.9461 48.5047 84.5202 48.5039C89.0943 48.5047 92.8172 52.2196 92.8172 56.7937V61.2612C92.8172 61.6139 93.1028 61.8995 93.4554 61.8995H94.0936C94.4462 61.8995 94.7318 61.6139 94.7318 61.2612V56.7937C94.5496 51.334 90.228 46.582 84.5202 46.582Z" fill="white"/>
</g>
<path d="M127.214 50.3096H128.629V59.7682H133.351V61.0679H127.214V50.3096ZM134.856 53.2843H136.199V61.0679H134.856V53.2843ZM134.697 51.2049C134.697 50.9546 134.774 50.7524 134.928 50.5984C135.082 50.4443 135.284 50.3673 135.534 50.3673C135.785 50.3673 135.987 50.4443 136.141 50.5984C136.295 50.7524 136.372 50.9546 136.372 51.2049C136.372 51.4552 136.295 51.6574 136.141 51.8114C135.987 51.9654 135.785 52.0424 135.534 52.0424C135.284 52.0424 135.082 51.9654 134.928 51.8114C134.774 51.6574 134.697 51.4552 134.697 51.2049ZM141.142 61.2412C140.391 61.2412 139.726 61.0582 139.149 60.6924C138.571 60.317 138.157 59.8115 137.907 59.1761L138.99 58.6274C139.211 59.0799 139.515 59.4361 139.9 59.696C140.285 59.9559 140.704 60.0859 141.156 60.0859C141.589 60.0859 141.946 59.9848 142.225 59.7827C142.504 59.5805 142.644 59.3157 142.644 58.9884C142.644 58.6707 142.518 58.4156 142.268 58.2231C142.018 58.0209 141.748 57.9005 141.459 57.862L140.29 57.7032C139.597 57.5299 139.077 57.2411 138.73 56.8368C138.384 56.4324 138.21 55.9559 138.21 55.4071C138.21 54.9547 138.326 54.5551 138.557 54.2085C138.797 53.862 139.125 53.5924 139.539 53.3999C139.962 53.2073 140.429 53.1111 140.94 53.1111C141.613 53.1111 142.215 53.2795 142.745 53.6165C143.284 53.9534 143.669 54.4203 143.9 55.0172L142.831 55.566C142.639 55.1713 142.369 54.8584 142.023 54.6273C141.686 54.3963 141.31 54.2808 140.896 54.2808C140.501 54.2808 140.184 54.377 139.943 54.5696C139.702 54.7621 139.582 55.0124 139.582 55.3205C139.582 55.6382 139.693 55.8933 139.914 56.0858C140.145 56.2688 140.396 56.3843 140.665 56.4324L141.95 56.6057C142.595 56.779 143.096 57.0774 143.452 57.501C143.818 57.915 144.001 58.3963 144.001 58.9451C144.001 59.3879 143.881 59.7827 143.64 60.1292C143.399 60.4758 143.062 60.7502 142.629 60.9523C142.196 61.1449 141.7 61.2412 141.142 61.2412ZM148.965 61.1545C148.204 61.1545 147.617 60.9427 147.203 60.5191C146.799 60.0859 146.597 59.4698 146.597 58.6707V54.5696H145.181V53.2843H145.47C145.817 53.2843 146.091 53.1833 146.293 52.9811C146.495 52.7693 146.597 52.4853 146.597 52.1291V51.4937H147.94V53.2843H149.687V54.5696H147.94V58.6274C147.94 59.4938 148.373 59.9271 149.239 59.9271C149.422 59.9271 149.6 59.9126 149.773 59.8837V61.0823C149.571 61.1304 149.302 61.1545 148.965 61.1545ZM154.97 61.2412C154.238 61.2412 153.574 61.0631 152.977 60.7069C152.38 60.3507 151.913 59.8645 151.576 59.2483C151.239 58.6226 151.071 57.9246 151.071 57.1544C151.071 56.3843 151.234 55.6911 151.562 55.075C151.899 54.4589 152.351 53.9775 152.919 53.6309C153.497 53.2843 154.142 53.1111 154.854 53.1111C155.596 53.1111 156.241 53.2843 156.789 53.6309C157.348 53.9775 157.771 54.4396 158.06 55.0172C158.358 55.5852 158.508 56.1965 158.508 56.8512C158.508 57.0726 158.484 57.3133 158.436 57.5732H152.486C152.505 58.0642 152.63 58.4926 152.861 58.8584C153.092 59.2243 153.391 59.5083 153.757 59.7104C154.132 59.9126 154.541 60.0137 154.984 60.0137C155.928 60.0137 156.654 59.5853 157.165 58.7285L158.291 59.3061C158.041 59.8645 157.617 60.3266 157.02 60.6924C156.423 61.0582 155.74 61.2412 154.97 61.2412ZM157.049 56.418C157.03 55.8115 156.809 55.3109 156.385 54.9161C155.971 54.5118 155.461 54.3096 154.854 54.3096C154.257 54.3096 153.742 54.5022 153.309 54.8873C152.876 55.2627 152.611 55.773 152.515 56.418H157.049ZM160.331 53.2843H161.645V54.2374C161.876 53.8716 162.184 53.5924 162.569 53.3999C162.954 53.2073 163.388 53.1111 163.869 53.1111C164.418 53.1111 164.913 53.241 165.356 53.501C165.799 53.7513 166.146 54.0978 166.396 54.5407C166.656 54.9835 166.786 55.4793 166.786 56.0281V61.0679H165.429V56.4613C165.429 55.8259 165.255 55.3253 164.909 54.9595C164.572 54.5936 164.124 54.4107 163.566 54.4107C163.007 54.4107 162.55 54.5984 162.194 54.9739C161.847 55.3397 161.674 55.8355 161.674 56.4613V61.0679H160.331V53.2843ZM168.78 53.2843H170.123V61.0679H168.78V53.2843ZM168.621 51.2049C168.621 50.9546 168.698 50.7524 168.852 50.5984C169.006 50.4443 169.208 50.3673 169.459 50.3673C169.709 50.3673 169.911 50.4443 170.065 50.5984C170.219 50.7524 170.296 50.9546 170.296 51.2049C170.296 51.4552 170.219 51.6574 170.065 51.8114C169.911 51.9654 169.709 52.0424 169.459 52.0424C169.208 52.0424 169.006 51.9654 168.852 51.8114C168.698 51.6574 168.621 51.4552 168.621 51.2049ZM172.279 53.2843H173.593V54.2374C173.824 53.8716 174.132 53.5924 174.517 53.3999C174.902 53.2073 175.336 53.1111 175.817 53.1111C176.366 53.1111 176.861 53.241 177.304 53.501C177.747 53.7513 178.094 54.0978 178.344 54.5407C178.604 54.9835 178.734 55.4793 178.734 56.0281V61.0679H177.376V56.4613C177.376 55.8259 177.203 55.3253 176.857 54.9595C176.52 54.5936 176.072 54.4107 175.514 54.4107C174.955 54.4107 174.498 54.5984 174.142 54.9739C173.795 55.3397 173.622 55.8355 173.622 56.4613V61.0679H172.279V53.2843ZM184.439 64.2448C183.621 64.2448 182.899 64.0571 182.273 63.6816C181.657 63.3158 181.219 62.8248 180.959 62.2087L182.215 61.6311C182.36 62.0161 182.624 62.329 183.009 62.5697C183.395 62.82 183.866 62.9452 184.425 62.9452C185.108 62.9452 185.676 62.7478 186.129 62.3531C186.581 61.968 186.807 61.4289 186.807 60.7357V59.6527C186.519 60.0474 186.148 60.3507 185.695 60.5624C185.243 60.7742 184.752 60.8801 184.222 60.8801C183.5 60.8801 182.851 60.7117 182.273 60.3747C181.695 60.0281 181.238 59.5612 180.901 58.974C180.574 58.3771 180.41 57.7176 180.41 56.9956C180.41 56.2736 180.574 55.6189 180.901 55.0317C181.228 54.4348 181.681 53.9679 182.259 53.6309C182.836 53.2843 183.486 53.1111 184.208 53.1111C184.747 53.1111 185.243 53.2218 185.695 53.4432C186.148 53.655 186.533 53.9631 186.851 54.3674V53.2843H188.165V60.7357C188.165 61.4096 188.006 62.0113 187.688 62.5408C187.371 63.0703 186.928 63.4843 186.36 63.7827C185.792 64.0908 185.152 64.2448 184.439 64.2448ZM181.825 56.9956C181.825 57.4673 181.931 57.9005 182.143 58.2953C182.364 58.69 182.668 59.0029 183.053 59.2339C183.438 59.465 183.866 59.5805 184.338 59.5805C184.79 59.5805 185.204 59.465 185.58 59.2339C185.965 59.0029 186.263 58.69 186.475 58.2953C186.697 57.9005 186.807 57.4673 186.807 56.9956C186.807 56.5239 186.697 56.0907 186.475 55.6959C186.263 55.3012 185.965 54.9883 185.58 54.7573C185.204 54.5262 184.79 54.4107 184.338 54.4107C183.866 54.4107 183.438 54.5262 183.053 54.7573C182.677 54.9883 182.379 55.3012 182.157 55.6959C181.936 56.0907 181.825 56.5239 181.825 56.9956ZM193.046 50.3096H194.461V55.8115L199.256 50.3096H201.032L197.133 54.8151L201.249 61.0679H199.559L196.151 55.9559L194.461 57.8909V61.0679H193.046V50.3096ZM205.279 61.2412C204.721 61.2412 204.22 61.1112 203.777 60.8513C203.334 60.5913 202.988 60.2303 202.737 59.7682C202.487 59.2965 202.362 58.7574 202.362 58.1509V53.2843H203.705V58.0064C203.705 58.5841 203.878 59.051 204.225 59.4072C204.571 59.7634 205.024 59.9415 205.582 59.9415C206.141 59.9415 206.593 59.7586 206.94 59.3928C207.286 59.0173 207.46 58.5167 207.46 57.8909V53.2843H208.817V61.0679H207.503V60.1148C207.272 60.4806 206.964 60.7598 206.579 60.9523C206.194 61.1449 205.76 61.2412 205.279 61.2412ZM210.97 53.2843H212.284V54.2374C212.515 53.8716 212.823 53.5924 213.208 53.3999C213.593 53.2073 214.026 53.1111 214.508 53.1111C215.057 53.1111 215.552 53.241 215.995 53.501C216.438 53.7513 216.785 54.0978 217.035 54.5407C217.295 54.9835 217.425 55.4793 217.425 56.0281V61.0679H216.067V56.4613C216.067 55.8259 215.894 55.3253 215.547 54.9595C215.211 54.5936 214.763 54.4107 214.205 54.4107C213.646 54.4107 213.189 54.5984 212.833 54.9739C212.486 55.3397 212.313 55.8355 212.313 56.4613V61.0679H210.97V53.2843ZM222.581 61.1545C221.821 61.1545 221.233 60.9427 220.819 60.5191C220.415 60.0859 220.213 59.4698 220.213 58.6707V54.5696H218.798V53.2843H219.087C219.433 53.2843 219.708 53.1833 219.91 52.9811C220.112 52.7693 220.213 52.4853 220.213 52.1291V51.4937H221.556V53.2843H223.303V54.5696H221.556V58.6274C221.556 59.4938 221.989 59.9271 222.856 59.9271C223.039 59.9271 223.217 59.9126 223.39 59.8837V61.0823C223.188 61.1304 222.918 61.1545 222.581 61.1545ZM228.702 61.2412C227.96 61.2412 227.282 61.0679 226.666 60.7213C226.059 60.3651 225.578 59.8789 225.222 59.2628C224.865 58.637 224.687 57.9391 224.687 57.1689C224.687 56.4083 224.86 55.72 225.207 55.1039C225.563 54.4781 226.045 53.9919 226.651 53.6454C227.267 53.2892 227.951 53.1111 228.702 53.1111C229.443 53.1111 230.117 53.2892 230.723 53.6454C231.34 53.9919 231.821 54.4733 232.167 55.0894C232.524 55.7056 232.702 56.3987 232.702 57.1689C232.702 57.9487 232.524 58.6467 232.167 59.2628C231.811 59.8789 231.325 60.3651 230.709 60.7213C230.102 61.0679 229.433 61.2412 228.702 61.2412ZM226.102 57.1689C226.102 57.6888 226.213 58.1605 226.435 58.5841C226.666 59.0077 226.978 59.3398 227.373 59.5805C227.778 59.8212 228.22 59.9415 228.702 59.9415C229.173 59.9415 229.607 59.8212 230.001 59.5805C230.396 59.3398 230.704 59.0077 230.926 58.5841C231.157 58.1605 231.272 57.6888 231.272 57.1689C231.272 56.649 231.157 56.1821 230.926 55.7681C230.704 55.3445 230.396 55.0124 230.001 54.7717C229.607 54.5311 229.173 54.4107 228.702 54.4107C228.22 54.4107 227.778 54.5311 227.373 54.7717C226.978 55.0124 226.666 55.3445 226.435 55.7681C226.213 56.1821 226.102 56.649 226.102 57.1689ZM240.069 50.3096H241.744L245.599 61.0679H244.083L243.202 58.5408H238.61L237.729 61.0679H236.213L240.069 50.3096ZM242.755 57.2411L240.906 51.9125L239.058 57.2411H242.755ZM245.54 64.2593C245.29 64.2593 245.078 64.2352 244.904 64.1871V62.9885C245.107 63.0174 245.299 63.0318 245.482 63.0318C245.896 63.0318 246.228 62.9163 246.479 62.6852C246.738 62.4542 246.868 62.122 246.868 61.6888V53.2843H248.211V61.6888C248.211 62.4975 247.961 63.1281 247.46 63.5805C246.96 64.033 246.32 64.2593 245.54 64.2593ZM246.71 51.2049C246.71 50.9546 246.787 50.7524 246.941 50.5984C247.095 50.4443 247.297 50.3673 247.547 50.3673C247.797 50.3673 248 50.4443 248.154 50.5984C248.308 50.7524 248.385 50.9546 248.385 51.2049C248.385 51.4552 248.308 51.6574 248.154 51.8114C248 51.9654 247.797 52.0424 247.547 52.0424C247.297 52.0424 247.095 51.9654 246.941 51.8114C246.787 51.6574 246.71 51.4552 246.71 51.2049ZM250.367 53.2843H251.71V61.0679H250.367V53.2843ZM250.209 51.2049C250.209 50.9546 250.286 50.7524 250.44 50.5984C250.594 50.4443 250.796 50.3673 251.046 50.3673C251.296 50.3673 251.499 50.4443 251.653 50.5984C251.807 50.7524 251.884 50.9546 251.884 51.2049C251.884 51.4552 251.807 51.6574 251.653 51.8114C251.499 51.9654 251.296 52.0424 251.046 52.0424C250.796 52.0424 250.594 51.9654 250.44 51.8114C250.286 51.6574 250.209 51.4552 250.209 51.2049ZM259.077 52.5045C259.077 51.8692 259.222 51.3493 259.511 50.945C259.799 50.531 260.223 50.2614 260.781 50.1363V50.7283C260.483 50.8054 260.247 50.9594 260.074 51.1904C259.901 51.4119 259.804 51.6814 259.785 51.9991H260.493V53.732H259.077V52.5045ZM256.666 52.5045C256.666 51.8692 256.81 51.3493 257.099 50.945C257.388 50.531 257.807 50.2614 258.355 50.1363V50.7283C258.057 50.8054 257.821 50.9546 257.648 51.176C257.484 51.3974 257.388 51.6718 257.359 51.9991H258.067V53.732H256.666V52.5045ZM263.407 50.3096H267.205C267.917 50.3096 268.543 50.4443 269.082 50.7139C269.631 50.9835 270.054 51.3685 270.353 51.8692C270.651 52.3698 270.8 52.957 270.8 53.6309C270.8 54.3818 270.608 55.0269 270.223 55.566C269.847 56.0955 269.327 56.4757 268.663 56.7068L271.161 61.0679H269.515L267.19 56.9523H264.822V61.0679H263.407V50.3096ZM267.248 55.6526C267.883 55.6526 268.394 55.4697 268.779 55.1039C269.173 54.738 269.371 54.2471 269.371 53.6309C269.371 53.0148 269.173 52.5238 268.779 52.158C268.394 51.7921 267.883 51.6092 267.248 51.6092H264.822V55.6526H267.248ZM275.828 61.2412C275.096 61.2412 274.432 61.0631 273.835 60.7069C273.238 60.3507 272.771 59.8645 272.435 59.2483C272.098 58.6226 271.929 57.9246 271.929 57.1544C271.929 56.3843 272.093 55.6911 272.42 55.075C272.757 54.4589 273.209 53.9775 273.777 53.6309C274.355 53.2843 275 53.1111 275.713 53.1111C276.454 53.1111 277.099 53.2843 277.648 53.6309C278.206 53.9775 278.63 54.4396 278.918 55.0172C279.217 55.5852 279.366 56.1965 279.366 56.8512C279.366 57.0726 279.342 57.3133 279.294 57.5732H273.344C273.364 58.0642 273.489 58.4926 273.72 58.8584C273.951 59.2243 274.249 59.5083 274.615 59.7104C274.991 59.9126 275.4 60.0137 275.843 60.0137C276.786 60.0137 277.513 59.5853 278.023 58.7285L279.149 59.3061C278.899 59.8645 278.476 60.3266 277.879 60.6924C277.282 61.0582 276.598 61.2412 275.828 61.2412ZM277.908 56.418C277.888 55.8115 277.667 55.3109 277.243 54.9161C276.829 54.5118 276.319 54.3096 275.713 54.3096C275.116 54.3096 274.601 54.5022 274.167 54.8873C273.734 55.2627 273.469 55.773 273.373 56.418H277.908ZM281.189 50.1363H282.532V54.1941C282.763 53.8475 283.067 53.5828 283.442 53.3999C283.827 53.2073 284.256 53.1111 284.727 53.1111C285.276 53.1111 285.772 53.241 286.215 53.501C286.657 53.7513 287.004 54.0978 287.254 54.5407C287.514 54.9835 287.644 55.4793 287.644 56.0281V61.0679H286.287V56.4613C286.287 55.8259 286.114 55.3253 285.767 54.9595C285.42 54.5936 284.973 54.4107 284.424 54.4107C283.875 54.4107 283.423 54.5984 283.067 54.9739C282.71 55.3397 282.532 55.8355 282.532 56.4613V61.0679H281.189V50.1363ZM291.92 61.2412C291.15 61.2412 290.524 61.039 290.043 60.6347C289.561 60.2207 289.321 59.6864 289.321 59.0317C289.321 58.3963 289.527 57.8669 289.941 57.4433C290.365 57.01 291.005 56.7212 291.862 56.5768L294.519 56.1436V55.7826C294.519 55.359 294.36 55.0172 294.043 54.7573C293.725 54.4877 293.316 54.353 292.815 54.353C292.372 54.353 291.978 54.4685 291.631 54.6995C291.294 54.921 291.044 55.2194 290.88 55.5949L289.71 54.9883C289.932 54.4492 290.336 54.0016 290.923 53.6454C291.511 53.2892 292.151 53.1111 292.844 53.1111C293.431 53.1111 293.951 53.2266 294.404 53.4576C294.866 53.6791 295.222 53.9919 295.472 54.3963C295.732 54.8006 295.862 55.2627 295.862 55.7826V61.0679H294.548V60.057C294.269 60.4229 293.898 60.7117 293.436 60.9235C292.984 61.1353 292.478 61.2412 291.92 61.2412ZM290.736 58.9884C290.736 59.3061 290.861 59.5709 291.111 59.7827C291.371 59.9944 291.694 60.1003 292.079 60.1003C292.55 60.1003 292.969 59.9993 293.335 59.7971C293.71 59.5853 293.999 59.3013 294.201 58.9451C294.413 58.5889 294.519 58.1942 294.519 57.761V57.27L292.165 57.6599C291.212 57.8235 290.736 58.2664 290.736 58.9884ZM301.038 61.1545C300.278 61.1545 299.69 60.9427 299.276 60.5191C298.872 60.0859 298.67 59.4698 298.67 58.6707V54.5696H297.255V53.2843H297.543C297.89 53.2843 298.164 53.1833 298.367 52.9811C298.569 52.7693 298.67 52.4853 298.67 52.1291V51.4937H300.013V53.2843H301.76V54.5696H300.013V58.6274C300.013 59.4938 300.446 59.9271 301.312 59.9271C301.495 59.9271 301.674 59.9126 301.847 59.8837V61.0823C301.645 61.1304 301.375 61.1545 301.038 61.1545ZM306.316 53.2988C306.614 53.2218 306.845 53.0725 307.009 52.8511C307.182 52.6297 307.283 52.3601 307.312 52.0424H306.605V50.3096H308.02V51.537C308.02 52.1724 307.876 52.6971 307.587 53.1111C307.298 53.5154 306.874 53.7801 306.316 53.9053V53.2988ZM303.904 53.2988C304.193 53.2218 304.424 53.0725 304.598 52.8511C304.771 52.6297 304.872 52.3601 304.901 52.0424H304.193V50.3096H305.594V51.537C305.594 52.1724 305.45 52.6971 305.161 53.1111C304.872 53.5154 304.453 53.7801 303.904 53.9053V53.2988Z" fill="#7E7E7E"/>
<defs>
<filter id="filter0_d_3229_1130" x="0.86441" y="0.745766" width="378.271" height="167.271" filterUnits="userSpaceOnUse" color-interpolation-filters="sRGB">
<feFlood flood-opacity="0" result="BackgroundImageFix"/>
<feColorMatrix in="SourceAlpha" type="matrix" values="0 0 0 0 0 0 0 0 0 0 0 0 0 0 0 0 0 0 127 0" result="hardAlpha"/>
<feOffset dy="28.8814"/>
<feGaussianBlur stdDeviation="24.0678"/>
<feComposite in2="hardAlpha" operator="out"/>
<feColorMatrix type="matrix" values="0 0 0 0 0 0 0 0 0 0 0 0 0 0 0 0 0 0 0.12 0"/>
<feBlend mode="normal" in2="BackgroundImageFix" result="effect1_dropShadow_3229_1130"/>
<feBlend mode="normal" in="SourceGraphic" in2="effect1_dropShadow_3229_1130" result="shape"/>
</filter>
<clipPath id="clip0_3229_1130">
<rect width="20.4233" height="20.4233" fill="white" transform="translate(74.3086 45.3057)"/>
</clipPath>
</defs>
</svg>
