<svg width="24" height="24" viewBox="0 0 24 24" fill="none" xmlns="http://www.w3.org/2000/svg">
<g filter="url(#filter0_b_3222_1541)">
<path d="M22.9433 9.31017L22.079 8.45791C21.7429 8.12648 21.5508 7.67668 21.5508 7.20439V5.984C21.5508 4.01908 19.9302 2.42228 17.9375 2.42228H16.7011C16.2209 2.42228 15.7647 2.2317 15.4286 1.90027L14.5523 1.03736C13.1358 -0.347557 10.8429 -0.347557 9.43844 1.04801L8.57413 1.90027C8.23801 2.2317 7.78184 2.42228 7.30167 2.42228H6.06522C4.0725 2.42228 2.45191 4.01908 2.45191 5.984V7.19137C2.45191 7.67668 2.25984 8.12648 1.92372 8.45791L1.0474 9.32319C-0.35711 10.7188 -0.345106 12.9808 1.0594 14.3645L1.92372 15.2049C2.25984 15.5482 2.45191 15.998 2.45191 16.4727V17.6907C2.45191 19.6556 4.0725 21.2548 6.06522 21.2548H7.30167C7.78184 21.2548 8.23801 21.443 8.57413 21.7744L9.45044 22.6397C10.1587 23.3262 11.083 23.6683 12.0074 23.6683C12.9317 23.6683 13.856 23.3262 14.5643 22.6267L15.4286 21.7744C15.7647 21.443 16.2209 21.2548 16.7011 21.2548H17.9375C19.9302 21.2548 21.5508 19.6556 21.5508 17.6907V16.4727C21.5508 15.998 21.7429 15.5482 22.079 15.2168L22.9313 14.3764C22.9433 14.3645 22.9553 14.3539 22.9673 14.3409C23.6396 13.6673 24.0117 12.7665 23.9997 11.8196C23.9997 10.8726 23.6276 9.97304 22.9433 9.31017V9.31017Z" fill="#F2994A" fill-opacity="0.1"/>
</g>
<g clip-path="url(#clip0_3222_1541)">
<path d="M12 19C10.1435 19 8.36301 18.2625 7.05025 16.9497C5.7375 15.637 5 13.8565 5 12C5 10.1435 5.7375 8.36301 7.05025 7.05025C8.36301 5.7375 10.1435 5 12 5C13.8565 5 15.637 5.7375 16.9497 7.05025C18.2625 8.36301 19 10.1435 19 12C19 13.8565 18.2625 15.637 16.9497 16.9497C15.637 18.2625 13.8565 19 12 19ZM9.55 11.3C9.82848 11.3 10.0955 11.1894 10.2925 10.9925C10.4894 10.7955 10.6 10.5285 10.6 10.25C10.6 9.97152 10.4894 9.70445 10.2925 9.50754C10.0955 9.31062 9.82848 9.2 9.55 9.2C9.27152 9.2 9.00445 9.31062 8.80754 9.50754C8.61062 9.70445 8.5 9.97152 8.5 10.25C8.5 10.5285 8.61062 10.7955 8.80754 10.9925C9.00445 11.1894 9.27152 11.3 9.55 11.3V11.3ZM14.45 11.3C14.7285 11.3 14.9955 11.1894 15.1925 10.9925C15.3894 10.7955 15.5 10.5285 15.5 10.25C15.5 9.97152 15.3894 9.70445 15.1925 9.50754C14.9955 9.31062 14.7285 9.2 14.45 9.2C14.1715 9.2 13.9045 9.31062 13.7075 9.50754C13.5106 9.70445 13.4 9.97152 13.4 10.25C13.4 10.5285 13.5106 10.7955 13.7075 10.9925C13.9045 11.1894 14.1715 11.3 14.45 11.3ZM15.962 13.4H8.038C8.3266 14.2204 8.86274 14.931 9.57243 15.4336C10.2821 15.9363 11.1303 16.2062 12 16.2062C12.8697 16.2062 13.7179 15.9363 14.4276 15.4336C15.1373 14.931 15.6734 14.2204 15.962 13.4Z" fill="#F2994A"/>
</g>
<defs>
<filter id="filter0_b_3222_1541" x="-10" y="-10" width="44" height="43.668" filterUnits="userSpaceOnUse" color-interpolation-filters="sRGB">
<feFlood flood-opacity="0" result="BackgroundImageFix"/>
<feGaussianBlur in="BackgroundImageFix" stdDeviation="5"/>
<feComposite in2="SourceAlpha" operator="in" result="effect1_backgroundBlur_3222_1541"/>
<feBlend mode="normal" in="SourceGraphic" in2="effect1_backgroundBlur_3222_1541" result="shape"/>
</filter>
<clipPath id="clip0_3222_1541">
<rect width="14" height="14" fill="white" transform="translate(5 5)"/>
</clipPath>
</defs>
</svg>
