<svg width="24" height="24" viewBox="0 0 24 24" fill="none" xmlns="http://www.w3.org/2000/svg">
<g filter="url(#filter0_b_3222_1553)">
<path d="M22.9433 9.31017L22.079 8.45791C21.7429 8.12648 21.5508 7.67668 21.5508 7.20439V5.984C21.5508 4.01908 19.9302 2.42228 17.9375 2.42228H16.7011C16.2209 2.42228 15.7647 2.2317 15.4286 1.90027L14.5523 1.03736C13.1358 -0.347557 10.8429 -0.347557 9.43844 1.04801L8.57413 1.90027C8.23801 2.2317 7.78184 2.42228 7.30167 2.42228H6.06522C4.0725 2.42228 2.45191 4.01908 2.45191 5.984V7.19137C2.45191 7.67668 2.25984 8.12648 1.92372 8.45791L1.0474 9.32319C-0.35711 10.7188 -0.345106 12.9808 1.0594 14.3645L1.92372 15.2049C2.25984 15.5482 2.45191 15.998 2.45191 16.4727V17.6907C2.45191 19.6556 4.0725 21.2548 6.06522 21.2548H7.30167C7.78184 21.2548 8.23801 21.443 8.57413 21.7744L9.45044 22.6397C10.1587 23.3262 11.083 23.6683 12.0074 23.6683C12.9317 23.6683 13.856 23.3262 14.5643 22.6267L15.4286 21.7744C15.7647 21.443 16.2209 21.2548 16.7011 21.2548H17.9375C19.9302 21.2548 21.5508 19.6556 21.5508 17.6907V16.4727C21.5508 15.998 21.7429 15.5482 22.079 15.2168L22.9313 14.3764C22.9433 14.3645 22.9553 14.3539 22.9673 14.3409C23.6396 13.6673 24.0117 12.7665 23.9997 11.8196C23.9997 10.8726 23.6276 9.97304 22.9433 9.31017V9.31017Z" fill="#F2994A" fill-opacity="0.1"/>
</g>
<path d="M16.8484 15.3293C17.9491 14.1347 17.8383 12.6005 17.8348 12.583V7.91634C17.8348 7.76163 17.7734 7.61326 17.664 7.50386C17.5546 7.39447 17.4062 7.33301 17.2515 7.33301H13.7515C13.1081 7.33301 12.5848 7.85626 12.5848 8.49967V12.583C12.5848 12.7377 12.6463 12.8861 12.7557 12.9955C12.8651 13.1049 13.0134 13.1663 13.1681 13.1663H14.9636C14.9513 13.4547 14.8652 13.7351 14.7134 13.9807C14.4171 14.4479 13.8588 14.767 13.0532 14.928L12.5848 15.0213V16.6663H13.1681C14.7916 16.6663 16.03 16.2166 16.8484 15.3293ZM10.4276 15.3293C11.529 14.1347 11.4176 12.6005 11.4141 12.583V7.91634C11.4141 7.76163 11.3526 7.61326 11.2432 7.50386C11.1338 7.39447 10.9854 7.33301 10.8307 7.33301H7.33073C6.68731 7.33301 6.16406 7.85626 6.16406 8.49967V12.583C6.16406 12.7377 6.22552 12.8861 6.33492 12.9955C6.44431 13.1049 6.59269 13.1663 6.7474 13.1663H8.5429C8.53057 13.4547 8.4444 13.7351 8.29265 13.9807C7.99631 14.4479 7.43806 14.767 6.63248 14.928L6.16406 15.0213V16.6663H6.7474C8.37081 16.6663 9.60923 16.2166 10.4276 15.3293V15.3293Z" fill="#F2994A"/>
<defs>
<filter id="filter0_b_3222_1553" x="-10" y="-10" width="44" height="43.668" filterUnits="userSpaceOnUse" color-interpolation-filters="sRGB">
<feFlood flood-opacity="0" result="BackgroundImageFix"/>
<feGaussianBlur in="BackgroundImageFix" stdDeviation="5"/>
<feComposite in2="SourceAlpha" operator="in" result="effect1_backgroundBlur_3222_1553"/>
<feBlend mode="normal" in="SourceGraphic" in2="effect1_backgroundBlur_3222_1553" result="shape"/>
</filter>
</defs>
</svg>
