<svg width="24" height="24" viewBox="0 0 24 24" fill="none" xmlns="http://www.w3.org/2000/svg">
<g filter="url(#filter0_b_3222_1535)">
<path d="M22.9433 9.31017L22.079 8.45791C21.7429 8.12648 21.5508 7.67668 21.5508 7.20439V5.984C21.5508 4.01908 19.9302 2.42228 17.9375 2.42228H16.7011C16.2209 2.42228 15.7647 2.2317 15.4286 1.90027L14.5523 1.03736C13.1358 -0.347557 10.8429 -0.347557 9.43844 1.04801L8.57413 1.90027C8.23801 2.2317 7.78184 2.42228 7.30167 2.42228H6.06522C4.0725 2.42228 2.45191 4.01908 2.45191 5.984V7.19137C2.45191 7.67668 2.25984 8.12648 1.92372 8.45791L1.0474 9.32319C-0.35711 10.7188 -0.345106 12.9808 1.0594 14.3645L1.92372 15.2049C2.25984 15.5482 2.45191 15.998 2.45191 16.4727V17.6907C2.45191 19.6556 4.0725 21.2548 6.06522 21.2548H7.30167C7.78184 21.2548 8.23801 21.443 8.57413 21.7744L9.45044 22.6397C10.1587 23.3262 11.083 23.6683 12.0074 23.6683C12.9317 23.6683 13.856 23.3262 14.5643 22.6267L15.4286 21.7744C15.7647 21.443 16.2209 21.2548 16.7011 21.2548H17.9375C19.9302 21.2548 21.5508 19.6556 21.5508 17.6907V16.4727C21.5508 15.998 21.7429 15.5482 22.079 15.2168L22.9313 14.3764C22.9433 14.3645 22.9553 14.3539 22.9673 14.3409C23.6396 13.6673 24.0117 12.7665 23.9997 11.8196C23.9997 10.8726 23.6276 9.97304 22.9433 9.31017V9.31017Z" fill="#F2994A" fill-opacity="0.1"/>
</g>
<path d="M15.454 13.1698C15.3029 13.3142 15.2335 13.523 15.2679 13.7278L15.7865 16.5582C15.8302 16.7981 15.7276 17.0408 15.524 17.1795C15.3245 17.3233 15.0591 17.3405 14.8415 17.2255L12.2579 15.8966C12.1681 15.8494 12.0683 15.8241 11.9662 15.8213H11.8081C11.7533 15.8293 11.6996 15.8466 11.6506 15.873L9.06648 17.2082C8.93873 17.2715 8.79406 17.294 8.65231 17.2715C8.30698 17.2071 8.07656 16.8826 8.13315 16.5403L8.65231 13.71C8.68673 13.5035 8.61731 13.2935 8.46623 13.1468L6.35981 11.1334C6.18365 10.9648 6.1224 10.7117 6.2029 10.4833C6.28106 10.2555 6.48056 10.0892 6.72148 10.0519L9.62065 9.63708C9.84115 9.61465 10.0348 9.48234 10.134 9.28674L11.4115 6.70377C11.4418 6.64625 11.4809 6.59332 11.5281 6.54845L11.5806 6.50818C11.6081 6.47827 11.6396 6.45353 11.6746 6.4334L11.7381 6.41039L11.8373 6.37012H12.0829C12.3022 6.39255 12.4953 6.52199 12.5962 6.71528L13.8906 9.28674C13.984 9.47486 14.1654 9.60544 14.3748 9.63708L17.274 10.0519C17.519 10.0864 17.7237 10.2532 17.8048 10.4833C17.8812 10.714 17.8153 10.9671 17.6356 11.1334L15.454 13.1698Z" fill="#F2994A"/>
<defs>
<filter id="filter0_b_3222_1535" x="-10" y="-10" width="44" height="43.668" filterUnits="userSpaceOnUse" color-interpolation-filters="sRGB">
<feFlood flood-opacity="0" result="BackgroundImageFix"/>
<feGaussianBlur in="BackgroundImageFix" stdDeviation="5"/>
<feComposite in2="SourceAlpha" operator="in" result="effect1_backgroundBlur_3222_1535"/>
<feBlend mode="normal" in="SourceGraphic" in2="effect1_backgroundBlur_3222_1535" result="shape"/>
</filter>
</defs>
</svg>
