<svg width="24" height="24" viewBox="0 0 24 24" fill="none" xmlns="http://www.w3.org/2000/svg">
<g filter="url(#filter0_b_3222_1546)">
<path d="M22.9433 9.31017L22.079 8.45791C21.7429 8.12648 21.5508 7.67668 21.5508 7.20439V5.984C21.5508 4.01908 19.9302 2.42228 17.9375 2.42228H16.7011C16.2209 2.42228 15.7647 2.2317 15.4286 1.90027L14.5523 1.03736C13.1358 -0.347557 10.8429 -0.347557 9.43844 1.04801L8.57413 1.90027C8.23801 2.2317 7.78184 2.42228 7.30167 2.42228H6.06522C4.0725 2.42228 2.45191 4.01908 2.45191 5.984V7.19137C2.45191 7.67668 2.25984 8.12648 1.92372 8.45791L1.0474 9.32319C-0.35711 10.7188 -0.345106 12.9808 1.0594 14.3645L1.92372 15.2049C2.25984 15.5482 2.45191 15.998 2.45191 16.4727V17.6907C2.45191 19.6556 4.0725 21.2548 6.06522 21.2548H7.30167C7.78184 21.2548 8.23801 21.443 8.57413 21.7744L9.45044 22.6397C10.1587 23.3262 11.083 23.6683 12.0074 23.6683C12.9317 23.6683 13.856 23.3262 14.5643 22.6267L15.4286 21.7744C15.7647 21.443 16.2209 21.2548 16.7011 21.2548H17.9375C19.9302 21.2548 21.5508 19.6556 21.5508 17.6907V16.4727C21.5508 15.998 21.7429 15.5482 22.079 15.2168L22.9313 14.3764C22.9433 14.3645 22.9553 14.3539 22.9673 14.3409C23.6396 13.6673 24.0117 12.7665 23.9997 11.8196C23.9997 10.8726 23.6276 9.97304 22.9433 9.31017V9.31017Z" fill="#F2994A" fill-opacity="0.1"/>
</g>
<path d="M17.9714 11.858C18.2164 11.858 18.4154 12.0531 18.4154 12.2939C18.4154 12.5342 18.2164 12.7286 17.9714 12.7286H17.3519V14.8051C17.3519 16.0624 16.3095 17.084 15.0285 17.084H14.0993C13.8537 17.084 13.6548 16.8889 13.6548 16.6481C13.6548 16.4079 13.8537 16.2128 14.0993 16.2128H15.0285C15.8201 16.2128 16.4641 15.5819 16.4641 14.8051V12.7286H14.934V13.307C14.9399 14.0306 14.3478 14.622 13.6099 14.6289H10.3875C9.6502 14.622 9.05811 14.0306 9.06395 13.307V12.7286H7.53386V14.8074C7.53386 15.5813 8.17611 16.2111 8.96536 16.2122L9.91503 16.2128C10.16 16.2128 10.3589 16.4079 10.3589 16.6481C10.3584 16.8889 10.16 17.084 9.91445 17.084L8.9642 17.0834C7.68611 17.0823 6.64545 16.0612 6.64545 14.8074V12.7286H6.02653C5.78153 12.7286 5.58203 12.5342 5.58203 12.2939C5.58203 12.0531 5.78153 11.858 6.02653 11.858H17.9714ZM13.6102 8.7672C13.9631 8.7672 14.302 8.9062 14.5487 9.15388C14.7972 9.40386 14.9349 9.73963 14.9343 10.0891V10.8156C14.9314 10.9008 14.862 10.97 14.7751 10.9723H9.22174C9.13541 10.9695 9.06599 10.9003 9.06419 10.8156V10.0891C9.05782 9.36553 9.65049 8.77464 10.3878 8.7672H13.6102ZM15.0283 6.58416C16.3099 6.58416 17.3517 7.60578 17.3517 8.8625V9.94533C17.3517 10.1856 17.1534 10.3812 16.9078 10.3812C16.6628 10.3812 16.4639 10.1856 16.4639 9.94533V8.8625C16.4639 8.08627 15.8199 7.45477 15.0283 7.45477H14.099C13.854 7.45477 13.6551 7.26028 13.6551 7.02003C13.6551 6.77921 13.854 6.58416 14.099 6.58416H15.0283ZM9.91486 6.58398C10.1599 6.58398 10.3588 6.77904 10.3588 7.01986C10.3588 7.26011 10.1604 7.45517 9.91486 7.45517L8.96461 7.45574C8.17594 7.45688 7.53427 8.08667 7.53427 8.86061V9.94516C7.53427 10.1854 7.33477 10.381 7.08977 10.381C6.84477 10.381 6.64586 10.1854 6.64586 9.94516V8.86061C6.64586 7.60675 7.68594 6.5857 8.96402 6.58456L9.91486 6.58398Z" fill="#F2994A"/>
<defs>
<filter id="filter0_b_3222_1546" x="-10" y="-10" width="44" height="43.668" filterUnits="userSpaceOnUse" color-interpolation-filters="sRGB">
<feFlood flood-opacity="0" result="BackgroundImageFix"/>
<feGaussianBlur in="BackgroundImageFix" stdDeviation="5"/>
<feComposite in2="SourceAlpha" operator="in" result="effect1_backgroundBlur_3222_1546"/>
<feBlend mode="normal" in="SourceGraphic" in2="effect1_backgroundBlur_3222_1546" result="shape"/>
</filter>
</defs>
</svg>
