<svg width="70" height="70" viewBox="0 0 70 70" fill="none" xmlns="http://www.w3.org/2000/svg">
<rect width="70" height="70" rx="24" fill="#FEF5ED"/>
<path d="M32.332 25.9278C34.332 22.4638 39.1294 22.1545 42.5934 24.1545C46.0574 26.1545 48.188 30.4638 46.188 33.9278L41.5694 31.2612L39.26 29.9278L36.9507 28.5945L32.332 25.9278V25.9278Z" fill="#EB5757"/>
<path d="M27.944 40.3332C29.8908 38.6113 32.401 37.6626 35 37.6665C37.599 37.6626 40.1092 38.6113 42.056 40.3332M42.5947 24.1545C39.1307 22.1545 34.3333 22.4638 32.3333 25.9278L36.952 28.5945L42.5947 24.1545ZM42.5947 24.1545C46.0587 26.1545 48.1893 30.4638 46.1893 33.9278L39.2613 29.9278L42.5947 24.1545ZM42.5947 24.1545L43.2613 22.9998L42.5947 24.1545ZM42.5947 24.1545C40.1667 24.8052 38.6187 25.7078 36.952 28.5945L42.5947 24.1545ZM42.5947 24.1545C43.2453 26.5825 43.2373 28.3745 41.5707 31.2612L42.5947 24.1545ZM39.2613 29.9278L36.952 28.5945L39.2613 29.9278ZM39.2613 29.9278L35.2613 36.8558L39.2613 29.9278ZM23 46.9998L24.1733 45.5918C24.4311 45.2822 24.7555 45.035 25.1224 44.8687C25.4893 44.7024 25.8891 44.6214 26.2918 44.6316C26.6945 44.6419 27.0897 44.7432 27.4476 44.928C27.8056 45.1127 28.1171 45.3762 28.3587 45.6985C28.5969 46.0164 28.9031 46.2771 29.255 46.4616C29.6069 46.6461 29.9955 46.7496 30.3925 46.7647C30.7895 46.7798 31.1849 46.706 31.5497 46.5487C31.9145 46.3915 32.2397 46.1548 32.5013 45.8558L32.7547 45.5652C33.0345 45.245 33.3796 44.9885 33.7667 44.8127C34.1539 44.6369 34.5741 44.5459 34.9993 44.5459C35.4245 44.5459 35.8448 44.6369 36.232 44.8127C36.6191 44.9885 36.9642 45.245 37.244 45.5652L37.4987 45.8558C38.616 47.1318 40.624 47.0558 41.6413 45.6998C41.8829 45.3773 42.1945 45.1136 42.5525 44.9287C42.9106 44.7438 43.3059 44.6424 43.7088 44.6321C44.1117 44.6218 44.5117 44.703 44.8787 44.8694C45.2457 45.0359 45.5703 45.2833 45.828 45.5932L47 46.9998H23Z" stroke="#EB5757" stroke-width="2" stroke-linecap="round" stroke-linejoin="round"/>
</svg>
