<svg width="70" height="70" viewBox="0 0 70 70" fill="none" xmlns="http://www.w3.org/2000/svg">
<rect width="70" height="70" rx="16" fill="#E857EB" fill-opacity="0.1"/>
<path d="M27.5894 31.2687L27.5893 31.2686C27.4628 31.3769 27.3601 31.5102 27.2875 31.6601C27.215 31.8101 27.1742 31.9733 27.1678 32.1397C27.1614 32.3062 27.1894 32.4721 27.2502 32.6272C27.3109 32.7822 27.4031 32.923 27.5208 33.0408C27.6386 33.1586 27.7794 33.2507 27.9345 33.3115C28.0895 33.3722 28.2555 33.4002 28.4219 33.3938C28.5883 33.3874 28.7516 33.3466 28.9015 33.2741C29.0514 33.2016 29.1847 33.0988 29.293 32.9724L29.299 32.9654L29.2992 32.9656C29.4348 32.8289 29.5961 32.7205 29.7738 32.6464C29.9515 32.5724 30.1421 32.5343 30.3346 32.5343C30.5272 32.5343 30.7178 32.5724 30.8955 32.6464C31.073 32.7204 31.2342 32.8287 31.3696 32.9652M27.5894 31.2687L31.2813 33.0537M27.5894 31.2687L27.594 31.2643C28.3338 30.5624 29.3148 30.171 30.3346 30.171C31.3539 30.171 32.3343 30.5619 33.0739 31.2631M27.5894 31.2687L33.0739 31.2631M31.3696 32.9652C31.3698 32.9654 31.3699 32.9655 31.3701 32.9656L31.2813 33.0537M31.3696 32.9652C31.3696 32.9651 31.3695 32.9651 31.3694 32.965L31.2813 33.0537M31.3696 32.9652C31.596 33.1901 31.9022 33.3164 32.2213 33.3164C32.5404 33.3164 32.8465 33.1902 33.0729 32.9653M31.2813 33.0537C31.5311 33.302 31.8691 33.4414 32.2213 33.4414C32.5736 33.4414 32.9115 33.302 33.1613 33.0537M33.0729 32.9653C33.0728 32.9654 33.0727 32.9654 33.0727 32.9655L33.1613 33.0537M33.0729 32.9653C33.2978 32.7389 33.424 32.4328 33.424 32.1137C33.424 31.795 33.2982 31.4893 33.0739 31.2631M33.0729 32.9653C33.073 32.9652 33.0731 32.9651 33.0732 32.965L33.1613 33.0537M33.1613 33.0537L33.0739 31.2631M31.7762 41.383L31.7746 41.3843C31.6525 41.486 31.5115 41.5627 31.3598 41.6099C31.208 41.6571 31.0484 41.6738 30.8902 41.6592C30.7319 41.6446 30.5781 41.599 30.4375 41.5248C30.297 41.4508 30.1726 41.3498 30.0712 41.2276C29.8695 40.9817 29.7729 40.6663 29.8023 40.3496C29.8317 40.0334 29.9844 39.7414 30.2274 39.5369C31.5808 38.4494 33.265 37.8565 35.0013 37.8565C36.7374 37.8565 38.4214 38.4492 39.7748 39.5365C39.961 39.6963 40.0943 39.9089 40.1567 40.1462C40.2193 40.3841 40.2078 40.6355 40.1237 40.8667C40.0397 41.0979 39.887 41.2979 39.6862 41.44C39.4856 41.582 39.2464 41.6595 39.0006 41.662C38.7184 41.6624 38.445 41.5641 38.2277 41.3841L38.2264 41.383C37.3129 40.6465 36.1748 40.2448 35.0013 40.2448C33.8278 40.2448 32.6897 40.6465 31.7762 41.383L31.7762 41.383ZM39.668 30.171C40.6872 30.171 41.6676 30.5619 42.4073 31.2631C42.6315 31.4893 42.7574 31.795 42.7574 32.1137C42.7574 32.4328 42.6311 32.7389 42.4063 32.9653C42.1799 33.1902 41.8737 33.3164 41.5546 33.3164C41.2355 33.3164 40.9294 33.1902 40.7031 32.9653C40.5676 32.8288 40.4064 32.7204 40.2288 32.6464C40.0511 32.5724 39.8605 32.5343 39.668 32.5343C39.4755 32.5343 39.2848 32.5724 39.1071 32.6464C38.9311 32.7198 38.7711 32.8269 38.6363 32.9619C38.4057 33.1578 38.1099 33.2601 37.8074 33.2484C37.5033 33.2366 37.2148 33.1106 36.9996 32.8954C36.7844 32.6802 36.6583 32.3917 36.6466 32.0876C36.6349 31.7856 36.7369 31.4903 36.9321 31.2598C37.6714 30.5607 38.6503 30.171 39.668 30.171ZM27.6632 24.018C29.8353 22.5666 32.3889 21.792 35.0013 21.792C36.7359 21.792 38.4534 22.1336 40.0559 22.7974C41.6584 23.4612 43.1145 24.4341 44.341 25.6606C45.5675 26.8871 46.5404 28.3432 47.2042 29.9457C47.868 31.5482 48.2096 33.2658 48.2096 35.0003C48.2096 37.6127 47.435 40.1664 45.9836 42.3385C44.5323 44.5106 42.4694 46.2035 40.0559 47.2032C37.6424 48.2029 34.9867 48.4645 32.4245 47.9549C29.8623 47.4452 27.5088 46.1872 25.6616 44.34C23.8144 42.4928 22.5564 40.1393 22.0468 37.5771C21.5371 35.015 21.7987 32.3592 22.7984 29.9457C23.7981 27.5322 25.4911 25.4693 27.6632 24.018ZM29.0058 43.9733C30.7805 45.1591 32.8669 45.792 35.0013 45.792C37.8634 45.792 40.6083 44.655 42.6322 42.6312C44.656 40.6074 45.793 37.8625 45.793 35.0003C45.793 32.8659 45.1601 30.7795 43.9743 29.0048C42.7884 27.2301 41.103 25.8469 39.1311 25.0301C37.1592 24.2133 34.9893 23.9996 32.896 24.416C30.8026 24.8324 28.8797 25.8602 27.3704 27.3695C25.8612 28.8787 24.8334 30.8016 24.417 32.895C24.0006 34.9884 24.2143 37.1582 25.0311 39.1301C25.8479 41.102 27.2311 42.7875 29.0058 43.9733Z" fill="#9E4AF2" stroke="#FDEEFD" stroke-width="0.25"/>
</svg>
