<svg width="70" height="70" viewBox="0 0 70 70" fill="none" xmlns="http://www.w3.org/2000/svg">
<rect width="70" height="70" rx="16" fill="#F2C94C" fill-opacity="0.1"/>
<path d="M30.9992 34.2002C31.4236 34.2002 31.8305 34.0316 32.1306 33.7316C32.4306 33.4315 32.5992 33.0245 32.5992 32.6002C32.5992 32.1758 32.4306 31.7689 32.1306 31.4688C31.8305 31.1688 31.4236 31.0002 30.9992 31.0002C30.5749 31.0002 30.1679 31.1688 29.8678 31.4688C29.5678 31.7689 29.3992 32.1758 29.3992 32.6002C29.3992 33.0245 29.5678 33.4315 29.8678 33.7316C30.1679 34.0316 30.5749 34.2002 30.9992 34.2002ZM40.5992 32.6002C40.5992 33.0245 40.4306 33.4315 40.1306 33.7316C39.8305 34.0316 39.4236 34.2002 38.9992 34.2002C38.5749 34.2002 38.1679 34.0316 37.8678 33.7316C37.5678 33.4315 37.3992 33.0245 37.3992 32.6002C37.3992 32.1758 37.5678 31.7689 37.8678 31.4688C38.1679 31.1688 38.5749 31.0002 38.9992 31.0002C39.4236 31.0002 39.8305 31.1688 40.1306 31.4688C40.4306 31.7689 40.5992 32.1758 40.5992 32.6002V32.6002ZM40.6984 40.4242C40.5336 40.5559 40.3235 40.6172 40.1137 40.5947C39.904 40.5722 39.7116 40.4678 39.5784 40.3042L39.5736 40.2994C39.5043 40.2227 39.4311 40.1495 39.3544 40.0802C39.105 39.8557 38.8331 39.6573 38.5432 39.4882C37.8056 39.0562 36.644 38.6002 35.0024 38.6002C33.3608 38.6002 32.1976 39.0546 31.4568 39.4898C31.1665 39.659 30.8941 39.8573 30.644 40.0818C30.5668 40.1511 30.4931 40.2242 30.4232 40.301L30.4184 40.3058C30.3522 40.3874 30.2706 40.4552 30.1782 40.5053C30.0858 40.5554 29.9845 40.5868 29.88 40.5977C29.7755 40.6086 29.6698 40.5989 29.5691 40.569C29.4683 40.539 29.3744 40.4896 29.2928 40.4234C29.2112 40.3572 29.1434 40.2756 29.0933 40.1832C29.0432 40.0908 29.0118 39.9895 29.0009 39.885C28.99 39.7804 28.9998 39.6748 29.0297 39.574C29.0596 39.4733 29.109 39.3794 29.1752 39.2978L29.7992 39.8002L29.1752 39.2994V39.2978L29.1784 39.2962L29.1816 39.293L29.1896 39.2834L29.212 39.2546L29.2904 39.1682C29.3544 39.0994 29.4472 39.005 29.5688 38.8962C29.812 38.6754 30.1688 38.3906 30.6472 38.1106C31.6072 37.5458 33.0472 37.0002 35.0024 37.0002C36.956 37.0002 38.3944 37.5442 39.3544 38.1106C39.8344 38.3922 40.1896 38.6754 40.4312 38.8946C40.5561 39.0086 40.6747 39.1293 40.7864 39.2562L40.8104 39.2834L40.8184 39.293L40.8216 39.2978C40.8216 39.2978 40.8232 39.301 40.1992 39.8002L40.8232 39.301C40.9554 39.4666 41.0165 39.6778 40.9931 39.8884C40.9697 40.099 40.8637 40.2917 40.6984 40.4242V40.4242ZM34.9992 22.2002C31.6044 22.2002 28.3487 23.5488 25.9483 25.9492C23.5478 28.3497 22.1992 31.6054 22.1992 35.0002C22.1992 38.395 23.5478 41.6507 25.9483 44.0512C28.3487 46.4516 31.6044 47.8002 34.9992 47.8002C38.394 47.8002 41.6497 46.4516 44.0502 44.0512C46.4507 41.6507 47.7992 38.395 47.7992 35.0002C47.7992 31.6054 46.4507 28.3497 44.0502 25.9492C41.6497 23.5488 38.394 22.2002 34.9992 22.2002V22.2002ZM23.7992 35.0002C23.7992 33.5294 24.0889 32.073 24.6518 30.7141C25.2146 29.3553 26.0396 28.1206 27.0796 27.0806C28.1196 26.0406 29.3543 25.2156 30.7132 24.6527C32.072 24.0899 33.5284 23.8002 34.9992 23.8002C36.47 23.8002 37.9264 24.0899 39.2853 24.6527C40.6441 25.2156 41.8788 26.0406 42.9188 27.0806C43.9588 28.1206 44.7838 29.3553 45.3467 30.7141C45.9095 32.073 46.1992 33.5294 46.1992 35.0002C46.1992 37.9706 45.0192 40.8194 42.9188 42.9198C40.8184 45.0202 37.9696 46.2002 34.9992 46.2002C32.0288 46.2002 29.18 45.0202 27.0796 42.9198C24.9792 40.8194 23.7992 37.9706 23.7992 35.0002Z" fill="#EB5757"/>
</svg>
