<svg width="70" height="70" viewBox="0 0 70 70" fill="none" xmlns="http://www.w3.org/2000/svg">
<rect width="70" height="70" rx="24" fill="#EDF9FE"/>
<path d="M29 37H28C25.7906 37 24 38.7937 24 41.0075V44.9925C24 47.2056 25.7906 49 28 49H29C30.1044 49 31 48.1025 31 46.9963V39.0037C31 37.8969 30.1044 37 29 37ZM42 37H41C39.8956 37 39 37.8969 39 39.0037V46.9963C39 48.1025 39.8956 49 41 49H42C44.2094 49 46 47.2056 46 44.9925V41.0075C46 38.7944 44.2094 37 42 37ZM35 21C26.0569 21 19.2856 28.4456 19 37V44C19 44.5525 19.4475 45 20 45H21C21.5525 45 22 44.5525 22 44V37C22 29.8331 27.8331 24.0125 35 24.0113C42.1669 24.0125 48 29.8331 48 37V44C48 44.5525 48.4475 45 49 45H50C50.5525 45 51 44.5525 51 44V37C50.7144 28.4456 43.9431 21 35 21Z" fill="#4A5BF2"/>
</svg>
