<svg width="222" height="296" viewBox="0 0 222 296" fill="none" xmlns="http://www.w3.org/2000/svg">
<path d="M148 296C107.131 296 74 262.869 74 222V222H148V296V296Z" fill="#4A5BF2"/>
<path d="M148 222C188.869 222 222 188.869 222 148V148H148V222V222Z" fill="#5789EB"/>
<path d="M74 74C33.1309 74 0 40.8691 0 5.00679e-06V5.00679e-06H74V74V74Z" fill="#4A5BF2"/>
<path d="M74 74C33.1309 74 0 107.131 0 148V148H74V74V74Z" fill="#5789EB"/>
<path d="M222 148C181.131 148 148 114.869 148 74V74H222V148V148Z" fill="#4CC0F2"/>
<path d="M148 0C188.869 0 222 33.1309 222 74V74H148V0V0Z" fill="#5789EB"/>
<path d="M74 222C33.1309 222 0 188.869 0 148V148H74V222V222Z" fill="#4CC0F2"/>
<path d="M74 148C114.869 148 148 114.869 148 74V74H74V148V148Z" fill="#4A5BF2"/>
<path d="M74 0C114.869 0 148 33.1309 148 74V74H74V0V0Z" fill="#4CC0F2"/>
<path d="M74 148C114.869 148 148 181.131 148 222V222H74V148V148Z" fill="#5789EB"/>
<path d="M148 296V222H222V296H148Z" fill="#4CC0F2"/>
</svg>
