<svg width="40" height="40" viewBox="0 0 40 40" fill="none" xmlns="http://www.w3.org/2000/svg">
<g filter="url(#filter0_f_3222_1568)">
<circle cx="20" cy="20" r="12" fill="#FA4D4D"/>
</g>
<circle cx="20" cy="16" r="16" fill="#FA4D4D"/>
<path d="M17.5187 9.6671C17.9387 9.67987 18.3454 9.7532 18.7394 9.8872H18.7787C18.8054 9.89987 18.8254 9.91387 18.8387 9.92654C18.986 9.97387 19.1254 10.0272 19.2587 10.1005L19.512 10.2139C19.612 10.2672 19.732 10.3665 19.7987 10.4072C19.8654 10.4465 19.9387 10.4872 19.9987 10.5332C20.7394 9.9672 21.6387 9.66054 22.5654 9.6671C22.986 9.6671 23.406 9.72654 23.8054 9.86054C26.266 10.6605 27.1527 13.3605 26.412 15.7205C25.992 16.9265 25.3054 18.0272 24.406 18.9265C23.1187 20.1732 21.706 21.2799 20.1854 22.2332L20.0187 22.3339L19.8454 22.2265C18.3194 21.2799 16.8987 20.1732 15.5994 18.9199C14.706 18.0205 14.0187 16.9265 13.592 15.7205C12.8387 13.3605 13.7254 10.6605 16.2127 9.84654C16.406 9.77987 16.6054 9.7332 16.8054 9.7072H16.8854C17.0727 9.67987 17.2587 9.6671 17.4454 9.6671H17.5187ZM23.4587 11.7739C23.1854 11.6799 22.8854 11.8272 22.7854 12.1072C22.692 12.3872 22.8387 12.6939 23.1187 12.7932C23.546 12.9532 23.832 13.3739 23.832 13.8399V13.8605C23.8194 14.0132 23.8654 14.1605 23.9587 14.2739C24.052 14.3872 24.192 14.4532 24.3387 14.4672C24.612 14.4599 24.8454 14.2405 24.8654 13.9599V13.8805C24.8854 12.9465 24.3194 12.1005 23.4587 11.7739Z" fill="white"/>
<defs>
<filter id="filter0_f_3222_1568" x="0" y="0" width="40" height="40" filterUnits="userSpaceOnUse" color-interpolation-filters="sRGB">
<feFlood flood-opacity="0" result="BackgroundImageFix"/>
<feBlend mode="normal" in="SourceGraphic" in2="BackgroundImageFix" result="shape"/>
<feGaussianBlur stdDeviation="4" result="effect1_foregroundBlur_3222_1568"/>
</filter>
</defs>
</svg>
