<svg width="70" height="70" viewBox="0 0 70 70" fill="none" xmlns="http://www.w3.org/2000/svg">
<rect width="70" height="70" rx="16" fill="#4CC0F2" fill-opacity="0.1"/>
<path d="M32.668 32.3334C32.6743 32.1106 32.6358 31.8889 32.555 31.6813C32.4741 31.4736 32.3524 31.2843 32.197 31.1245C32.0417 30.9648 31.8559 30.8377 31.6506 30.751C31.4454 30.6643 31.2248 30.6196 31.002 30.6196C30.7791 30.6196 30.5586 30.6643 30.3533 30.751C30.148 30.8377 29.9622 30.9648 29.8069 31.1245C29.6516 31.2843 29.5299 31.4736 29.449 31.6813C29.3681 31.8889 29.3297 32.1106 29.336 32.3334C29.3482 32.7671 29.5291 33.1789 29.8402 33.4813C30.1513 33.7837 30.5681 33.9529 31.002 33.9529C31.4358 33.9529 31.8526 33.7837 32.1637 33.4813C32.4748 33.1789 32.6557 32.7671 32.668 32.3334V32.3334ZM40.668 32.3334C40.6743 32.1106 40.6358 31.8889 40.555 31.6813C40.4741 31.4736 40.3524 31.2843 40.197 31.1245C40.0417 30.9648 39.8559 30.8377 39.6506 30.751C39.4454 30.6643 39.2248 30.6196 39.002 30.6196C38.7791 30.6196 38.5586 30.6643 38.3533 30.751C38.148 30.8377 37.9622 30.9648 37.8069 31.1245C37.6516 31.2843 37.5299 31.4736 37.449 31.6813C37.3681 31.8889 37.3297 32.1106 37.336 32.3334C37.3482 32.7671 37.5291 33.1789 37.8402 33.4813C38.1513 33.7837 38.5681 33.9529 39.002 33.9529C39.4358 33.9529 39.8526 33.7837 40.1637 33.4813C40.4748 33.1789 40.6557 32.7671 40.668 32.3334ZM40.0013 37.6667C38.868 37.6667 37.6586 37.9507 36.6133 38.3587C35.5773 38.7614 34.5946 39.3241 33.96 39.9587C33.8645 40.051 33.7884 40.1614 33.736 40.2834C33.6837 40.4055 33.6561 40.5367 33.6551 40.6695C33.654 40.8023 33.6793 40.9339 33.7297 41.0568C33.78 41.1797 33.8543 41.2913 33.9483 41.3851C34.0422 41.479 34.1539 41.5532 34.2768 41.6034C34.3997 41.6536 34.5314 41.6789 34.6642 41.6776C34.797 41.6764 34.9282 41.6488 35.0501 41.5963C35.1721 41.5438 35.2824 41.4676 35.3746 41.3721C35.7413 41.0067 36.4453 40.5694 37.3386 40.2227C38.2186 39.8801 39.1773 39.6654 40.0013 39.6654H40.8013C41.0665 39.6654 41.3209 39.56 41.5084 39.3725C41.6959 39.185 41.8013 38.9306 41.8013 38.6654C41.8013 38.4002 41.6959 38.1458 41.5084 37.9583C41.3209 37.7708 41.0665 37.6654 40.8013 37.6654H40.0013V37.6667ZM48.3373 35.0001C48.3373 27.6347 42.3666 21.6641 35.0013 21.6641C27.636 21.6641 21.668 27.6347 21.668 35.0001C21.6666 42.3641 27.636 48.3334 35.0013 48.3334C42.3666 48.3334 48.3373 42.3627 48.3373 34.9987V35.0001ZM23.6666 35.0001C23.6504 33.5011 23.9316 32.0139 24.4939 30.6244C25.0563 29.2348 25.8887 27.9706 26.9429 26.9049C27.9971 25.8393 29.2521 24.9932 30.6355 24.4158C32.0188 23.8384 33.503 23.5411 35.002 23.5411C36.501 23.5411 37.9851 23.8384 39.3684 24.4158C40.7518 24.9932 42.0069 25.8393 43.0611 26.9049C44.1153 27.9706 44.9476 29.2348 45.51 30.6244C46.0724 32.0139 46.3536 33.5011 46.3373 35.0001C46.3049 37.9851 45.0964 40.8369 42.9741 42.9362C40.8519 45.0356 37.9872 46.2131 35.002 46.2131C32.0168 46.2131 29.1521 45.0356 27.0298 42.9362C24.9075 40.8369 23.699 37.9851 23.6666 35.0001V35.0001Z" fill="#4A5BF2"/>
</svg>
