<svg width="137" height="42" viewBox="0 0 137 42" fill="none" xmlns="http://www.w3.org/2000/svg">
<circle cx="21" cy="21" r="21" fill="#2496FF"/>
<path d="M52.792 27.64H53.872C54.592 27.64 55.168 27.44 55.6 27.04C56.048 26.624 56.272 26.08 56.272 25.408V13.12H59.992V25.24C59.992 26.392 59.736 27.4 59.224 28.264C58.728 29.128 58.016 29.8 57.088 30.28C56.176 30.76 55.104 31 53.872 31H52.792V27.64ZM67.4789 13.12H72.4229L78.4709 31H74.4149L73.2149 27.352H66.6629L65.4629 31H61.4309L67.4789 13.12ZM72.1829 24.112L69.9509 17.224L67.6949 24.112H72.1829ZM80.449 13.12H84.169V20.464L90.289 13.12H94.945L88.897 20.416L95.089 31H90.745L86.377 23.44L84.169 26.104V31H80.449V13.12ZM95.7256 28L103.862 16.36H96.2056V13.12H108.566V16.12L100.454 27.76H108.806V31H95.7256V28ZM110.783 13.12H122.807V16.36H114.503V20.416H122.327V23.656H114.503V27.76H122.807V31H110.783V13.12ZM125.036 13.12H128.756V27.76H136.316V31H125.036V13.12Z" fill="white"/>
<path d="M16.792 27.64H17.872C18.592 27.64 19.168 27.44 19.6 27.04C20.048 26.624 20.272 26.08 20.272 25.408V13.12H23.992V25.24C23.992 26.392 23.736 27.4 23.224 28.264C22.728 29.128 22.016 29.8 21.088 30.28C20.176 30.76 19.104 31 17.872 31H16.792V27.64Z" fill="white"/>
</svg>
